<svg style="display:none" xmlns="http://www.w3.org/2000/svg">
  <symbol id="icon-burger" width="24" height="16" viewBox="0 0 24 16" fill="none">
    <line x1="0" y1="2" x2="24" y2="2" stroke-width="3" stroke="#356EAD"/>
    <line x1="0" y1="8" x2="24" y2="8" stroke-width="3" stroke="#356EAD"/>
    <line x1="0" y1="14" x2="24" y2="14" stroke-width="3" stroke="#356EAD"/>
  </symbol>

  <symbol id="icon-arrow" width="16" height="16" viewBox="0 0 16 16" fill="none">
    <line x1="0" y1="8" x2="14" y2="8" stroke="#5A98D0" stroke-width="2"/>
    <line x1="7" y1="1" x2="15" y2="8.7" stroke="#5A98D0" stroke-width="2"/>
    <line x1="15" y1="7.3" x2="7" y2="15" stroke="#5A98D0" stroke-width="2"/>
  </symbol>

  <symbol id="icon-mail" width="20" height="16" viewBox="0 0 20 16" fill="none">
    <path d="M18,0H2A2,2,0,0,0,0,2V14a2,2,0,0,0,2,2H18a2,2,0,0,0,2-2V2A2,2,0,0,0,18,0Zm0,4L10,9,2,4V2l8,5,8-5Z" fill="#1f3f68"/>
  </symbol>

  <symbol id="icon-phone" width="18" height="18" viewBox="0 0 18 18" fill="none">
    <path d="M3.62,7.79a15.15,15.15,0,0,0,6.59,6.59l2.2-2.2a1,1,0,0,1,1-.24,11.41,11.41,0,0,0,3.57.57,1,1,0,0,1,1,1V17a1,1,0,0,1-1,1A17,17,0,0,1,0,1,1,1,0,0,1,1,0H4.5a1,1,0,0,1,1,1,11.36,11.36,0,0,0,.57,3.57,1,1,0,0,1-.25,1Z" fill="#1f3f68"/>
  </symbol>

  <symbol id="icon-web" width="20" height="20" viewBox="0 0 20 20" fill="none">
    <path d="M10,0A10,10,0,1,0,20,10,10,10,0,0,0,10,0Zm6.93,6H14a15.65,15.65,0,0,0-1.38-3.56A8,8,0,0,1,16.92,6ZM10,2a14.09,14.09,0,0,1,1.91,4H8.09A14.09,14.09,0,0,1,10,2ZM2.26,12A8.24,8.24,0,0,1,2,10a8.24,8.24,0,0,1,.26-2H5.64a16.52,16.52,0,0,0-.14,2,16.52,16.52,0,0,0,.14,2Zm.82,2H6a15.65,15.65,0,0,0,1.38,3.56A8,8,0,0,1,3.08,14ZM6,6H3.08A8,8,0,0,1,7.41,2.44,15.65,15.65,0,0,0,6,6Zm4,12a14.09,14.09,0,0,1-1.91-4h3.82A14.09,14.09,0,0,1,10,18Zm2.34-6H7.66a14.71,14.71,0,0,1-.16-2,14.58,14.58,0,0,1,.16-2h4.68a14.58,14.58,0,0,1,.16,2A14.71,14.71,0,0,1,12.34,12Zm.25,5.56A15.65,15.65,0,0,0,14,14h3A8,8,0,0,1,12.59,17.56ZM14.36,12a16.52,16.52,0,0,0,.14-2,16.52,16.52,0,0,0-.14-2h3.38A8.24,8.24,0,0,1,18,10a8.24,8.24,0,0,1-.26,2Z" fill="#1f3f68"/>
  </symbol>
</svg>
